# xmcd
#
# Track frame offsets: 
#        157
#        18402
#        39852
#        70490
#        91675
#
# Disc length: 1481 seconds
#
# Revision: 1
# Processed by: cddbd v1.5.2PL0 Copyright (c) Steve Scherf et al.
# Submitted via: ExactAudioCopyFreeDBPlugin 1.0
#
DISCID=3205c705
DTITLE=After 7 - My Only Woman (Promo CDM)
DYEAR=1989
DGENRE=Funk
TTITLE0=My Only Woman (New 7")
TTITLE1=My Only Woman (Percapella)
TTITLE2=My Only Woman (12")
TTITLE3=My Only Woman (LP Version)
TTITLE4=My Only Woman (Instrumental)
EXTD=
EXTT0=
EXTT1=
EXTT2=
EXTT3=
EXTT4=
PLAYORDER=
